<svg width="96" height="113" viewBox="0 0 96 113" fill="none" xmlns="http://www.w3.org/2000/svg">
<path d="M45.9141 47.8554C45.489 44.4748 45.0147 41.2304 44.5154 38.1449C44.2402 36.4435 42.5326 35.2791 40.7186 35.5446C27.3534 37.5209 16.2495 41.3646 10.1707 43.7859C8.88133 44.2994 8.44053 45.7926 9.24505 46.8494C9.26729 46.8809 9.29776 46.9104 9.32712 46.9361C10.1257 47.6642 21.7612 58.3544 27.8654 66.6032C35.3946 75.7984 44.7094 90.8514 44.7094 90.8514C45.9806 92.4307 48.6716 91.5654 48.634 89.5857C48.4389 79.7546 47.8313 63.1062 45.9141 47.8554Z" fill="#151414"/>
<path d="M28.2745 33.9599C31.5451 33.1802 35.2168 32.4319 39.1811 31.8289C41.3893 31.4934 42.8692 29.5206 42.4606 27.4607C41.0273 20.2474 39.5596 14.3923 38.4775 10.409C38.0101 8.6981 35.6513 8.22954 34.4799 9.61723C34.4799 9.61723 30.0797 16.2436 25.0553 22.1971C20.6131 27.4597 11.9916 36.3012 11.9916 36.3012C11.1234 37.3322 12.2519 38.7823 13.5637 38.3168C17.5342 36.9033 22.5299 35.3316 28.2745 33.9599Z" fill="#151414"/>
<path d="M51.1826 30.3518C56.4885 30.0187 62.1 30.0299 67.8441 30.5814C70.0134 30.788 71.1274 28.2138 69.417 26.947C69.417 26.947 61.3503 21.8486 56.1922 18.0011C50.9943 14.1223 44.4686 8.49675 44.4686 8.49675C43.5637 7.82833 42.2638 8.61273 42.5499 9.65932C43.6587 13.7515 45.1395 19.6982 46.5772 26.9887C46.9836 29.041 48.9627 30.4922 51.1826 30.3518Z" fill="#151414"/>
<path d="M51.5692 34.2084C49.701 34.3307 48.3412 35.9225 48.6222 37.6595C49.1146 40.7055 49.5808 43.9065 49.9998 47.235C51.9292 62.5901 52.5397 79.3409 52.7319 89.2387C52.7525 90.3272 54.3433 90.6212 54.8075 89.6257C54.8075 89.6257 62.2266 69.5263 67.7153 58.8505C67.7183 58.8457 67.7183 58.8457 67.7213 58.8408C70.2771 52.7434 78.6394 38.606 78.6394 38.606C79.1891 37.4322 78.4596 36.0677 77.1251 35.7918C68.4209 33.9941 59.7288 33.6708 51.5692 34.2084Z" fill="#151414"/>
<path d="M48.1468 94.0411L42.3664 101.926C41.1432 103.595 42.5224 105.845 44.6793 105.699L58.683 104.739C60.779 104.597 61.767 102.244 60.3361 100.8L53.2924 93.6864C51.8552 92.2354 49.3489 92.4063 48.1468 94.0411Z" fill="#151414"/>
</svg>
