<svg width="1003" height="638" viewBox="0 0 1003 638" fill="none" xmlns="http://www.w3.org/2000/svg">
<mask id="mask0_2_313" style="mask-type:alpha" maskUnits="userSpaceOnUse" x="-87" y="0" width="1090" height="638">
<rect x="-86.9023" y="0.481445" width="1089.13" height="636.575" fill="#C4C4C4"/>
</mask>
<g mask="url(#mask0_2_313)">
<path d="M946.138 457.29C946.138 686.242 786.541 871.712 589.819 871.712C393.098 871.712 233.5 686.242 233.5 457.29C233.5 228.338 393.098 42.8682 589.819 42.8682C786.541 42.8682 946.138 228.338 946.138 457.29Z" stroke="#BF9C06"/>
<path d="M808.31 460.735C808.31 689.687 648.712 875.157 451.991 875.157C255.269 875.157 95.6719 689.687 95.6719 460.735C95.6719 231.783 255.269 46.3135 451.991 46.3135C648.712 46.3135 808.31 231.783 808.31 460.735Z" stroke="#BF9C06"/>
<path d="M668.759 457.873C668.759 686.825 509.162 872.295 312.44 872.295C115.719 872.295 -43.8789 686.825 -43.8789 457.873C-43.8789 228.921 115.719 43.4512 312.44 43.4512C509.162 43.4512 668.759 228.921 668.759 457.873Z" stroke="#BF9C06"/>
</g>
</svg>
